<?xml version="1.0" encoding="UTF-8"?>
<svg id="Capa_3" data-name="Capa 3" xmlns="http://www.w3.org/2000/svg" viewBox="0 0 972.26 419.87">
  <defs>
    <style>
      .cls-1 {
        fill: currentColor;
      }
    </style>
  </defs>
  <path class="cls-1" d="m326.51,227.3l-.76,151.72-100.12,40.85-94.49-43.9.19-60.7-.19.76,38.49,20.23,59.06,14.32,16.61-10.12v-112.39l81.22-.76Z"/>
  <path class="cls-1" d="m415.24,120.07l-.19,218.76,16.61,10.12,21.57-14.32V120.45l58.8-1.91v255.79l-77.31,43.9-77.31-40.85-.38-256.94,58.22-.38Z"/>
  <path class="cls-1" d="m621.21,119.87l62.23-1.91-55.36,138.97,55.36,138.78-63.18-3.82-31.69-79.6.38,81.51-59.18.95V121.02l58.03-.38.38,82.27,33.02-83.04Z"/>
  <path class="cls-1" d="m740.13,229.45l55.93-1.34v59.18l-55.55.57.19,47.15,55.55-1.34v59.18l-114.34,1.91V121.02l115.87-2.1-.95,58.98-56.88,1.91.19,49.63Z"/>
  <path class="cls-1" d="m885.02,307.33l-11.26-.19v87.62h-56.89l-1.14-275.64,77.31-7.64,77.31,37.03,1.14,122.74-31.3,14.7,32.07,108.62-60.7,2.29-26.53-89.53Zm-10.5-62.04l16.61.57,21.57-16.23v-42.57l-16.61-12.03-21.57,2.86v67.38Z"/>
  <path class="cls-1" d="m224.52,274.53c-21.46,0-38.85,21.32-38.85,47.61,0-26.3-17.39-47.61-38.85-47.61,21.46,0,38.85-21.32,38.85-47.61,0,26.3,17.39,47.61,38.85,47.61Z"/>
  <path class="cls-1" d="m131.14,209.54s92.65,22.81,202.41,0v-25.66s-5.7-85.52-37.06-115.46h-2.85s4.28,47.04-14.25,66.99c0,0,5.7,29.93,2.85,32.78-2.85,2.85-21.38-78.4-115.46-142.54l-2.85,4.28s24.23,57.02,18.53,88.38c0,0,27.08,28.51,27.08,57.02,0,0-69.85-152.52-182.45,14.25l-2.85,4.28,2.85,2.85s76.97-76.97,104.06,12.83Z"/>
  <circle class="cls-1" cx="155.37" cy="17.1" r="17.1"/>
  <circle class="cls-1" cx="289.36" cy="54.17" r="17.1"/>
  <circle class="cls-1" cx="17.1" cy="208.11" r="17.1"/>
</svg>
